# This file is brought to you by Roblox Corporation
# Generated by Roblox Studio

mtllib rock.mtl

g Mesheslowpolynatureblendsphere0021

v -239.387 0 27.8698 
v -239.74 0.0460815 29.7915 
v -246.052 1.51445 27.0761 
v -239.387 0 27.8698 
v -238.693 2.14556 27.8623 
v -239.652 0.0289459 29.6455 
v -239.387 0 27.8698 
v -239.174 7.41748 25.5002 
v -238.518 3.91251 27.4303 
v -240.528 5.87349 24.5897 
v -239.387 0 27.8698 
v -242.139 0.674765 24.6852 
v -240.528 5.87349 24.5897 
v -238.518 3.91251 27.4303 
v -238.693 2.14556 27.8623 
v -241.153 20.4436 28.578 
v -238.518 3.91251 27.4303 
v -241.235 20.3761 26.499 
v -240.421 16.2452 29.6788 
v -239.174 7.41748 25.5002 
v -241.127 19.5149 25.7668 
v -239.174 7.41748 25.5002 
v -241.235 20.3761 26.499 
v -238.518 3.91251 27.4303 
v -238.518 3.91251 27.4303 
v -240.644 13.9549 30.2327 
v -238.693 2.14556 27.8623 
v -240.421 16.2452 29.6788 
v -239.652 0.0289459 29.6455 
v -239.74 0.0460815 29.7915 
v -243.577 20.0507 26.8283 
v -241.235 20.3761 26.499 
v -241.153 20.4436 28.578 
v -244.566 19.953 28.4442 
v -244.483 19.9365 27.3915 
v -246.143 1.50239 28.9455 
v -239.74 0.0460815 29.7915 
v -246.052 1.51445 27.0761 
v -240.644 13.9549 30.2327 
v -245.334 15.0286 29.6134 
v -240.644 13.9549 30.2327 
v -244.566 19.953 28.4442 
v -245.334 15.0286 29.6134 
v -245.33 15.1278 29.589 
v -241.153 20.4436 28.578 
v -240.421 16.2452 29.6788 
v -243.577 20.0507 26.8283 
v -246.386 7.27736 29.1473 
v -246.143 1.50239 28.9455 
v -245.354 14.9636 29.6079 
v -246.386 7.27736 29.1473 
v -245.334 15.0286 29.6134 
v -246.483 4.70955 29.0286 
v -246.467 3.36458 28.9758 
v -240.644 13.9549 30.2327 
v -239.74 0.0460815 29.7915 
v -246.143 1.50239 28.9455 
v -246.052 1.51445 27.0761 
v -244.106 1.12627 24.1909 
v -245.334 15.0286 29.6134 
v -245.33 15.1278 29.589 
v -245.354 14.9636 29.6079 
v -244.352 3.27571 23.9411 
v -246.112 7.14136 25.523 
v -244.106 1.12627 24.1909 
v -246.052 1.51445 27.0761 
v -246.058 7.19382 25.4243 
v -244.352 3.27571 23.9411 
v -246.584 4.60366 26.9921 
v -246.675 4.74045 28.3498 
v -246.143 1.50239 28.9455 
v -246.669 4.68676 28.414 
v -246.671 4.70955 28.3908 
v -246.467 3.36458 28.9758 
v -245.16 14.1263 25.7742 
v -243.577 20.0507 26.8283 
v -246.058 7.19382 25.4243 
v -246.112 7.14136 25.523 
v -246.07 7.40179 25.4578 
v -246.483 4.70955 29.0286 
v -246.666 4.83857 28.4135 
v -246.669 4.70955 28.4141 
v -246.386 7.27736 29.1473 
v -246.669 4.68676 28.414 
v -246.467 3.36458 28.9758 
v -246.671 4.70955 28.3908 
v -246.675 4.74045 28.3498 
v -246.386 7.27736 29.1473 
v -244.483 19.9365 27.3915 
v -246.584 4.60366 26.9921 
v -244.566 19.953 28.4442 
v -245.33 15.1278 29.589 
v -245.354 14.9636 29.6079 
v -245.16 14.1263 25.7742 
v -246.112 7.14136 25.523 
v -246.07 7.40179 25.4578 
v -246.143 1.50239 28.9455 
v -239.387 0 27.8698 
v -239.74 0.0460815 29.7915 
v -239.652 0.0289459 29.6455 
v -246.052 1.51445 27.0761 
v -242.139 0.674765 24.6852 
v -244.106 1.12627 24.1909 
v -239.387 0 27.8698 
v -246.052 1.51445 27.0761 
v -244.106 1.12627 24.1909 
v -239.174 7.41748 25.5002 
v -242.139 0.674765 24.6852 
v -242.737 9.35829 23.7673 
v -240.528 5.87349 24.5897 
v -244.106 1.12627 24.1909 
v -244.352 3.27571 23.9411 
v -241.127 19.5149 25.7668 
v -240.528 5.87349 24.5897 
v -241.942 18.5941 25.2202 
v -239.174 7.41748 25.5002 
v -242.659 15.0547 24.4379 
v -242.737 9.35829 23.7673 
v -246.058 7.19382 25.4243 
v -245.16 14.1263 25.7742 
v -246.058 7.19382 25.4243 
v -246.07 7.40179 25.4578 
v -244.352 3.27571 23.9411 
v -242.737 9.35829 23.7673 
v -242.659 15.0547 24.4379 
v -243.577 20.0507 26.8283 
v -244.483 19.9365 27.3915 
v -241.942 18.5941 25.2202 
v -241.235 20.3761 26.499 
v -241.127 19.5149 25.7668 

vn -0.220472 -0.976378 -0.015748 
vn -0.220472 -0.976378 -0.015748 
vn -0.220472 -0.976378 -0.015748 
vn 0.944882 -0.307087 0.141732 
vn 0.944882 -0.307087 0.141732 
vn 0.944882 -0.307087 0.141732 
vn 0.708661 -0.228346 -0.661417 
vn 0.708661 -0.228346 -0.661417 
vn 0.708661 -0.228346 -0.661417 
vn 0.708661 -0.228346 -0.661417 
vn 0.708661 -0.228346 -0.661417 
vn 0.708661 -0.228346 -0.661417 
vn 0.708661 -0.228346 -0.661417 
vn 0.708661 -0.228346 -0.661417 
vn 0.708661 -0.228346 -0.661417 
vn 0.984252 0.15748 -0.0472441 
vn 0.984252 0.15748 -0.0472441 
vn 0.984252 0.15748 -0.0472441 
vn 0.984252 0.15748 -0.0472441 
vn 0.984252 0.15748 -0.0472441 
vn 0.984252 0.15748 -0.0472441 
vn 0.984252 0.15748 -0.0472441 
vn 0.984252 0.15748 -0.0472441 
vn 0.984252 0.15748 -0.0472441 
vn 0.858268 0.0393701 0.511811 
vn 0.858268 0.0393701 0.511811 
vn 0.858268 0.0393701 0.511811 
vn 0.858268 0.0393701 0.511811 
vn 0.858268 0.0393701 0.511811 
vn 0.858268 0.0393701 0.511811 
vn -0.464567 0.543307 -0.700787 
vn -0.188976 0.811024 -0.551181 
vn -0.141732 0.992126 -0.023622 
vn -0.141732 0.992126 -0.023622 
vn -0.141732 0.992126 -0.023622 
vn -0.220472 -0.976378 -0.015748 
vn -0.220472 -0.976378 -0.015748 
vn -0.220472 -0.976378 -0.015748 
vn 0.858268 0.0393701 0.511811 
vn -0.76378 0.181102 0.622047 
vn -0.0708661 0.244094 0.968504 
vn -0.0708661 0.244094 0.968504 
vn -0.0708661 0.244094 0.968504 
vn -0.0708661 0.244094 0.968504 
vn -0.0708661 0.244094 0.968504 
vn -0.0708661 0.244094 0.968504 
vn -0.464567 0.543307 -0.700787 
vn -0.952756 0.023622 0.291339 
vn -0.141732 -0.0393701 0.992126 
vn -0.141732 -0.0393701 0.992126 
vn -0.141732 -0.0393701 0.992126 
vn -0.141732 -0.0393701 0.992126 
vn -0.141732 -0.0393701 0.992126 
vn -0.141732 -0.0393701 0.992126 
vn -0.141732 -0.0393701 0.992126 
vn -0.141732 -0.0393701 0.992126 
vn -0.220472 -0.976378 -0.015748 
vn -0.220472 -0.976378 -0.015748 
vn -0.220472 -0.976378 -0.015748 
vn -0.76378 0.181102 0.622047 
vn -0.76378 0.181102 0.622047 
vn -0.76378 0.181102 0.622047 
vn 0.220472 -0.0866142 -0.968504 
vn -0.826772 -0.15748 -0.535433 
vn -0.826772 -0.15748 -0.535433 
vn -0.929134 -0.173228 -0.322835 
vn -0.826772 -0.15748 -0.535433 
vn -0.826772 -0.15748 -0.535433 
vn -0.929134 -0.165354 -0.322835 
vn -0.984252 -0.173228 -0.0472441 
vn -0.984252 -0.173228 -0.0472441 
vn -0.984252 -0.173228 -0.0472441 
vn -0.984252 -0.173228 -0.0472441 
vn -0.984252 -0.173228 -0.0472441 
vn -0.511811 0.173228 -0.84252 
vn -0.464567 0.543307 -0.700787 
vn -0.88189 0.023622 -0.472441 
vn -0.88189 0.023622 -0.472441 
vn -0.88189 0.023622 -0.472441 
vn -0.96063 0 0.291339 
vn -0.992126 0.0708661 0.0944882 
vn -0.984252 0 0.19685 
vn -0.952756 0.023622 0.291339 
vn -0.976378 -0.023622 0.212598 
vn -0.952756 -0.023622 0.291339 
vn -0.992126 0.015748 0.0944882 
vn -0.992126 0.11811 -0.0472441 
vn -0.984252 0.133858 -0.0787402 
vn -0.984252 0.133858 -0.0787402 
vn -0.984252 0.133858 -0.0787402 
vn -0.984252 0.133858 -0.0787402 
vn -0.984252 0.133858 -0.0787402 
vn -0.984252 0.133858 -0.0787402 
vn -0.984252 0.133858 -0.0787402 
vn -0.984252 0.133858 -0.0787402 
vn -0.984252 0.133858 -0.0787402 
vn -0.220472 -0.976378 -0.015748 
vn -0.220472 -0.976378 -0.015748 
vn -0.220472 -0.976378 -0.015748 
vn -0.220472 -0.976378 -0.015748 
vn -0.220472 -0.976378 -0.015748 
vn -0.220472 -0.976378 -0.015748 
vn -0.220472 -0.976378 -0.015748 
vn -0.220472 -0.976378 -0.015748 
vn -0.220472 -0.976378 -0.015748 
vn -0.220472 -0.976378 -0.015748 
vn 0.708661 -0.228346 -0.661417 
vn 0.220472 -0.0866142 -0.968504 
vn 0.220472 -0.0866142 -0.968504 
vn 0.220472 -0.0866142 -0.968504 
vn 0.220472 -0.0866142 -0.968504 
vn 0.220472 -0.0866142 -0.968504 
vn 0.480315 0.0944882 -0.874016 
vn 0.480315 0.0944882 -0.874016 
vn 0.480315 0.0944882 -0.874016 
vn 0.480315 0.0944882 -0.874016 
vn 0.480315 0.0944882 -0.874016 
vn 0.480315 0.0944882 -0.874016 
vn -0.826772 -0.15748 -0.535433 
vn -0.511811 0.173228 -0.84252 
vn -0.496063 0.110236 -0.858268 
vn -0.496063 0.110236 -0.858268 
vn -0.496063 0.110236 -0.858268 
vn -0.496063 0.110236 -0.858268 
vn -0.519685 0.181102 -0.834646 
vn -0.464567 0.543307 -0.700787 
vn -0.535433 0.283465 -0.795276 
vn -0.417323 0.417323 -0.80315 
vn -0.188976 0.811024 -0.551181 
vn -0.188976 0.622047 -0.755906 

vt 5.89128 -18.2777 
vt 5.65107 -18.272 
vt 5.99048 -18.0884 
vt 5.89128 -18.2777 
vt 5.89222 -18.0095 
vt 5.66931 -18.2741 
vt 5.89128 -18.2777 
vt 6.18747 -17.3505 
vt 5.94621 -17.7887 
vt 6.30128 -17.5435 
vt 5.89128 -18.2777 
vt 6.28934 -18.1934 
vt 6.30128 -17.5435 
vt 5.94621 -17.7887 
vt 5.89222 -18.0095 
vt 5.80275 -15.7223 
vt 5.94621 -17.7887 
vt 6.06262 -15.7307 
vt 5.66514 -16.2471 
vt 6.18747 -17.3505 
vt 6.15416 -15.8384 
vt 6.18747 -17.3505 
vt 6.06262 -15.7307 
vt 5.94621 -17.7887 
vt 5.94621 -17.7887 
vt 5.59591 -16.5334 
vt 5.89222 -18.0095 
vt 5.66514 -16.2471 
vt 5.66931 -18.2741 
vt 5.65107 -18.272 
vt 6.12252 -17.0215 
vt 5.82976 -17.0626 
vt 5.81953 -16.8027 
vt 6.24615 -16.8195 
vt 6.23579 -16.9511 
vt 5.55673 -18.0899 
vt 6.35709 -18.272 
vt 5.56801 -18.0884 
vt 6.24405 -16.5334 
vt 5.65784 -16.3992 
vt 6.24405 -16.5334 
vt 5.75385 -15.7836 
vt 5.65784 -16.3992 
vt 5.65835 -16.3868 
vt 6.18047 -15.7223 
vt 6.27188 -16.2471 
vt 5.87748 -15.7714 
vt 5.52628 -17.3681 
vt 5.55673 -18.0899 
vt 5.6553 -16.4073 
vt 5.52628 -17.3681 
vt 5.65784 -16.3992 
vt 5.51422 -17.689 
vt 5.51617 -17.8572 
vt 6.24405 -16.5334 
vt 6.35709 -18.272 
vt 6.24318 -18.0899 
vt 6.00952 -18.0884 
vt 5.64886 -18.1369 
vt 6.32668 -16.3992 
vt 6.32363 -16.3868 
vt 6.32598 -16.4073 
vt 5.61764 -17.8683 
vt 5.81537 -17.3851 
vt 5.64886 -18.1369 
vt 6.00952 -18.0884 
vt 5.80304 -17.3785 
vt 5.61764 -17.8683 
vt 5.99901 -17.7023 
vt 6.16873 -17.6852 
vt 6.24318 -18.0899 
vt 6.17675 -17.6919 
vt 6.17385 -17.689 
vt 6.24697 -17.8572 
vt 5.84677 -16.5119 
vt 5.97854 -15.7714 
vt 5.80304 -17.3785 
vt 5.81537 -17.3851 
vt 5.80722 -17.3525 
vt 6.25358 -17.689 
vt 6.17669 -17.6729 
vt 6.17676 -17.689 
vt 6.26842 -17.3681 
vt 6.17675 -17.6919 
vt 6.24697 -17.8572 
vt 6.17385 -17.689 
vt 6.16873 -17.6852 
vt 6.26842 -17.3681 
vt 6.04893 -15.7857 
vt 5.99901 -17.7023 
vt 6.18052 -15.7836 
vt 6.32363 -16.3868 
vt 6.32598 -16.4073 
vt 5.84677 -16.5119 
vt 5.81537 -17.3851 
vt 5.80722 -17.3525 
vt 5.55673 -16.7568 
vt 6.40116 -16.8913 
vt 6.35709 -16.6511 
vt 6.36801 -16.6693 
vt 5.56801 -16.9905 
vt 6.05718 -17.2893 
vt 5.81127 -17.3511 
vt 5.59884 -18.2777 
vt 6.43199 -18.0884 
vt 6.18873 -18.1369 
vt 5.57217 -17.3505 
vt 5.94282 -18.1934 
vt 6.01754 -17.1079 
vt 5.7415 -17.5435 
vt 6.18873 -18.1369 
vt 6.21944 -17.8683 
vt 5.81636 -15.8384 
vt 5.7415 -17.5435 
vt 5.91814 -15.9535 
vt 5.57217 -17.3505 
vt 6.00781 -16.3959 
vt 6.01754 -17.1079 
vt 6.43269 -17.3785 
vt 6.3205 -16.5119 
vt 6.43269 -17.3785 
vt 6.43426 -17.3525 
vt 6.21944 -17.8683 
vt 6.01754 -17.1079 
vt 6.00781 -16.3959 
vt 6.12252 -15.7714 
vt 6.23579 -15.7857 
vt 5.91814 -15.9535 
vt 5.82976 -15.7307 
vt 5.81636 -15.8384 

usemtl Mesheslowpolynatureblendsphere0021Mtl

f 4/4/4 5/5/5 6/6/6 
f 7/7/7 8/8/8 9/9/9 
f 8/8/8 7/7/7 10/10/10 
f 11/11/11 12/12/12 13/13/13 
f 11/11/11 14/14/14 15/15/15 
f 16/16/16 17/17/17 18/18/18 
f 17/17/17 16/16/16 19/19/19 
f 18/18/18 20/20/20 21/21/21 
f 22/22/22 23/23/23 24/24/24 
f 25/25/25 26/26/26 27/27/27 
f 26/26/26 25/25/25 28/28/28 
f 26/26/26 29/29/29 27/27/27 
f 29/29/29 26/26/26 30/30/30 
f 31/31/31 33/33/33 32/32/32 
f 33/33/33 31/31/31 34/34/34 
f 34/34/34 31/31/31 35/35/35 
f 41/41/41 42/42/42 43/43/43 
f 43/43/43 42/42/42 44/44/44 
f 42/42/42 41/41/41 45/45/45 
f 45/45/45 41/41/41 46/46/46 
f 49/49/49 50/50/50 51/51/51 
f 50/50/50 49/49/49 52/52/52 
f 49/49/49 51/51/51 53/53/53 
f 49/49/49 53/53/53 54/54/54 
f 49/49/49 55/55/55 52/52/52 
f 55/55/55 49/49/49 56/56/56 
f 60/60/60 61/61/61 62/62/62 
f 64/64/64 65/65/65 66/66/66 
f 67/67/67 65/65/65 64/64/64 
f 65/65/65 67/67/67 68/68/68 
f 69/69/69 64/64/64 66/66/66 
f 66/66/66 70/70/70 69/69/69 
f 71/71/71 70/70/70 66/66/66 
f 72/72/72 70/70/70 71/71/71 
f 70/70/70 72/72/72 73/73/73 
f 72/72/72 71/71/71 74/74/74 
f 77/77/77 78/78/78 79/79/79 
f 80/80/80 81/81/81 82/82/82 
f 81/81/81 80/80/80 83/83/83 
f 84/84/84 80/80/80 82/82/82 
f 80/80/80 84/84/84 85/85/85 
f 84/84/84 82/82/82 86/86/86 
f 81/81/81 86/86/86 82/82/82 
f 86/86/86 81/81/81 87/87/87 
f 88/88/88 87/87/87 81/81/81 
f 87/87/87 88/88/88 89/89/89 
f 87/87/87 89/89/89 90/90/90 
f 88/88/88 91/91/91 89/89/89 
f 91/91/91 88/88/88 92/92/92 
f 92/92/92 88/88/88 93/93/93 
f 90/90/90 89/89/89 94/94/94 
f 94/94/94 95/95/95 90/90/90 
f 95/95/95 94/94/94 96/96/96 
f 97/97/97 98/98/98 99/99/99 
f 99/99/99 98/98/98 100/100/100 
f 98/98/98 97/97/97 101/101/101 
f 101/101/101 102/102/102 98/98/98 
f 102/102/102 101/101/101 103/103/103 
f 108/108/108 109/109/109 110/110/110 
f 111/111/111 109/109/109 108/108/108 
f 109/109/109 111/111/111 112/112/112 
f 113/113/113 114/114/114 115/115/115 
f 114/114/114 113/113/113 116/116/116 
f 114/114/114 117/117/117 115/115/115 
f 117/117/117 114/114/114 118/118/118 
f 120/120/120 121/121/121 122/122/122 
f 121/121/121 120/120/120 123/123/123 
f 120/120/120 124/124/124 123/123/123 
f 124/124/124 120/120/120 125/125/125 
f 120/120/120 126/126/126 125/125/125 
f 126/126/126 120/120/120 127/127/127 
f 125/125/125 126/126/126 128/128/128 
f 129/129/129 128/128/128 126/126/126 
f 128/128/128 129/129/129 130/130/130 

